<svg width="70" height="70" viewBox="0 0 70 70"  xmlns="http://www.w3.org/2000/svg">
<path d="M8.86449 16.811C10.0912 15.7303 11.276 14.6015 12.5525 13.579C15.8382 10.9677 19.5004 9.12172 23.6205 8.26802C24.2438 8.13947 24.879 8.0772 25.5063 7.97475C25.6515 7.94997 25.7853 7.87969 25.8886 7.77388L24.9129 7.9386C24.9268 7.73773 24.7257 7.72768 23.8893 7.9386L24.182 7.95467C24.183 7.9667 24.183 7.97879 24.182 7.99082L22.3221 8.39256L22.2863 8.32226C22.5783 8.14946 22.8881 8.00936 23.2103 7.90445C25.9233 7.33769 28.7022 7.16051 31.4645 7.37817C35.7897 7.69555 39.86 8.8867 43.5461 11.1947C47.4382 13.597 50.682 16.9317 52.9891 20.9027C53.4227 21.6223 53.8156 22.3661 54.166 23.1304C55.1438 25.4504 53.9669 22.4253 55.2035 25.6051C54.8391 24.655 53.465 22.578 53.0449 21.6158C52.7561 21.875 52.9592 22.0316 53.0449 22.1943C53.1305 22.357 53.244 22.5218 53.3535 22.6845L53.2599 22.7387L52.5908 21.5033L52.8856 21.3266C51.5516 19.2103 49.9697 17.2639 48.174 15.5295L51.2586 19.105L51.165 19.1893C51.1172 19.1371 51.0635 19.0869 51.0196 19.0286C48.7561 15.9952 45.8786 13.4822 42.5783 11.6567C42.3442 11.5115 42.0984 11.3866 41.8434 11.2831C41.5268 11.1706 41.1903 11.1083 40.8637 11.026C40.6387 10.9697 40.4077 10.9255 40.1886 10.8512C39.9337 10.7648 39.6828 10.6503 39.4379 10.5479C38.8544 10.2848 38.2729 10.0156 37.6735 9.74442C37.7173 9.648 37.7432 9.58774 37.7731 9.52346C37.6352 9.51984 37.4979 9.50371 37.3629 9.47525C37.0741 9.38687 36.7973 9.2543 36.5046 9.18399C36.0785 9.08356 35.6981 8.85858 35.1943 8.99919C34.7761 9.1157 34.2862 8.98714 33.8302 8.94094C33.3264 8.89072 32.8226 8.81841 32.3227 8.74007C32.0838 8.7019 31.8528 8.59343 31.6138 8.57134C31.2315 8.53719 30.8471 8.55527 30.4628 8.54322C30.2278 8.54322 29.9928 8.493 29.7579 8.49702C29.5547 8.47466 29.3492 8.50436 29.1605 8.58339C28.7124 8.88269 28.2126 8.8385 27.7267 8.87666C21.2149 9.40495 15.6252 11.956 11.0092 16.6343C10.9017 16.7427 10.7065 16.8211 10.81 17.0822C10.8399 17.1545 10.5532 17.4739 10.4118 17.4739C10.3483 17.4717 10.2855 17.487 10.2301 17.5181C10.1746 17.5493 10.1287 17.5951 10.0971 17.6507C7.05434 21.2703 4.86782 25.3259 3.88807 30.0082C3.3188 32.6982 3.17297 35.4619 3.45594 38.1977C3.8979 42.7619 5.49867 47.1342 8.10379 50.8926C9.75861 53.287 11.8655 55.2355 14.1715 56.979C15.1811 57.7423 16.129 58.604 17.284 59.1504C19.7971 60.3375 22.338 61.4584 25.0901 61.9746C25.566 62.063 26.0519 62.0871 26.5358 62.1373C27.1671 62.2056 27.7984 62.3021 28.4316 62.3382C29.3895 62.4021 30.35 62.4149 31.3091 62.3764C33.4399 62.2418 35.5109 61.7517 37.56 61.1712C37.8408 61.0908 38.0897 60.8638 38.3705 60.8196C39.8262 60.5886 41.0728 59.8454 42.3174 59.1424C43.562 58.4393 44.7588 57.5816 45.9715 56.7902C46.0533 56.7263 46.1422 56.6724 46.2364 56.6295C44.8245 57.899 43.1976 58.8391 41.5766 59.8113C41.5905 59.8374 41.6045 59.8655 41.6164 59.8916L43.3071 59.0339L43.327 59.062C43.2414 59.1183 43.1558 59.1765 43.0681 59.2287C40.5172 60.7192 37.7691 61.6673 34.9235 62.4246C32.6175 63.0372 30.2915 63.0413 27.9537 63.0654H27.3563C28.583 63.4169 31.8787 63.3687 34.5451 62.7902C36.8875 62.2668 39.1722 61.5091 41.3655 60.5284C41.1206 60.6549 40.8796 60.7855 40.6307 60.904C40.3818 61.0225 40.0811 61.1551 39.8043 61.2796C39.5326 61.3924 39.2703 61.5268 39.0197 61.6814C39.0819 61.6748 39.1432 61.6621 39.2029 61.6432C40.0871 61.2696 41.017 60.9783 41.8454 60.5043C44.4083 59.0218 46.8876 57.4269 48.9188 55.2174C48.9407 55.1953 48.9666 55.1752 49.0343 55.1993C48.6041 55.6412 48.1839 56.0972 47.7379 56.523C47.2918 56.9489 46.8119 57.3767 46.326 57.7744C45.8401 58.1722 45.3303 58.5458 44.8185 58.9074C44.3068 59.2689 43.7711 59.5963 43.2255 59.9539C45.2766 59.297 48.7734 57.8006 54.1441 49.8983C54.0744 50.0389 52.9871 52.136 52.5092 52.8029C52.1985 53.2348 51.9417 53.7088 51.6051 54.1166C51.0077 54.8458 50.3625 55.5347 49.7452 56.2478C49.4405 56.5974 49.1776 56.989 48.8511 57.3145C47.2759 58.8933 45.4199 60.0905 43.5381 61.2515C43.1179 61.5106 42.638 61.6673 42.1919 61.8842C41.5527 62.1956 40.9354 62.5572 40.2822 62.8344C37.8216 63.8783 35.2212 64.5485 32.5657 64.823C24.0924 65.6988 16.6228 63.3265 10.2186 57.672C7.96142 55.7102 6.04697 53.3798 4.55518 50.7781C4.03742 49.8622 3.45993 48.9703 2.982 48.0423C2.6136 47.3212 2.42442 46.5056 2.03212 45.8026C1.63982 45.0996 1.47852 44.3704 1.23558 43.6412C0.992629 42.9121 0.813406 42.1347 0.638166 41.3734C0.578426 41.1183 0.654097 40.825 0.574443 40.5699C0.324568 39.7928 0.225186 38.9745 0.281712 38.1595C0.295652 37.9124 0.148291 37.6593 0.106472 37.4042C-0.0400253 36.4884 -0.0353152 35.5545 0.120412 34.6402C0.168205 34.351 0.265782 34.0216 0.178162 33.7685C-0.0349143 33.1518 0.1463 32.5633 0.200067 31.9606C0.257816 31.3259 0.468901 30.7052 0.554529 30.0705C0.992629 26.7983 2.11974 23.7631 3.72876 20.9148C4.43769 19.6594 5.29796 18.4903 6.1184 17.2991C6.28567 17.0541 6.56446 16.8974 6.77156 16.6704C6.97867 16.4434 7.1081 16.2506 7.27339 16.0417L7.8708 15.3708C7.97317 15.2964 8.07155 15.2167 8.16552 15.1318C12.2587 10.9172 17.4733 7.98727 23.1804 6.69521C25.8621 6.09224 28.6155 5.87984 31.3569 6.06448C34.563 6.26535 37.7134 6.81975 40.6088 8.21178C43.0303 9.37482 45.3881 10.7206 47.4949 12.4481C51.3064 15.5596 54.0346 19.4625 55.9084 23.9861C56.1932 24.6751 56.4362 25.3922 56.6731 26.0892C56.863 26.6516 57.0302 27.2214 57.1749 27.7986C57.2069 28.0103 57.2001 28.2261 57.155 28.4354C56.701 26.8284 56.2589 25.2215 55.542 23.6948L55.4962 23.7511C54.7594 22.4173 54.0684 21.0333 53.252 19.7337C52.6785 18.8197 51.9357 18.0122 51.2606 17.1585C51.2131 17.0771 51.1598 16.9993 51.1013 16.9255C50.9639 16.795 50.8086 16.6845 50.6712 16.5559C50.5696 16.4615 50.4003 16.4314 50.4561 16.1923C50.48 16.0939 50.257 15.9192 50.1215 15.8027C49.8547 15.5717 49.548 15.3828 49.2991 15.1338C47.7379 13.569 46.091 12.1046 44.1694 11.0059C40.9804 9.14127 37.4782 7.88496 33.8382 7.29983C31.5515 6.93905 29.2298 6.85946 26.9242 7.0628C22.9509 7.41087 19.1108 8.67913 15.7028 10.7689C15.6655 10.7906 15.6296 10.8148 15.5953 10.8412C15.5613 10.8814 15.5306 10.9244 15.5037 10.9697C16.6129 10.4173 17.6205 9.83883 18.7078 9.44914C18.7257 9.48731 18.7436 9.52748 18.7636 9.56564C18.668 9.61787 18.5644 9.67211 18.4748 9.72031C17.7778 10.0658 17.1008 10.4655 16.3779 10.7387C15.5097 11.0682 14.8386 11.6868 14.0659 12.1569C12.0746 13.3621 10.4994 15.0574 8.88838 16.7086C8.86977 16.7348 8.85563 16.764 8.84656 16.795C8.80875 16.8139 8.77386 16.8382 8.74301 16.8673C7.63779 18.0954 6.67011 19.4427 5.85753 20.8847C5.83716 20.9355 5.82376 20.9889 5.8177 21.0434C5.92329 20.9623 6.01309 20.8621 6.08255 20.7481C6.67996 19.8783 7.26144 19.0005 7.87478 18.1368C8.17946 17.6768 8.52994 17.2529 8.86449 16.811ZM41.2062 61.1049C39.8839 61.5809 38.3904 62.1554 36.871 62.6556C35.3516 63.1558 33.7525 63.4129 32.1614 63.6258C35.4472 63.5193 38.48 62.4989 41.2062 61.1049ZM30.3891 7.58908C29.1127 7.63729 27.8004 7.39826 26.5777 7.78995L30.3891 7.58908ZM32.2112 8.44278L30.1103 8.21379C30.2219 8.43676 31.3987 8.55326 32.2112 8.44278ZM34.2822 8.67579C33.7864 8.43475 33.5255 8.43274 33.1213 8.61352L34.2822 8.67579ZM28.2783 8.25597C28.2783 8.28209 28.2783 8.3082 28.2783 8.33431H29.274C29.274 8.3082 29.274 8.28209 29.274 8.25597H28.2783ZM39.1551 10.1662L39.2308 10.0216L38.2351 9.65604L38.1893 9.77053L39.1551 10.1662ZM41.1007 10.9978C41.1007 10.9717 41.1166 10.9456 41.1266 10.9215C40.8557 10.795 40.6008 10.6142 40.2842 10.6262C40.2842 10.6544 40.2663 10.6845 40.2563 10.7126L41.1007 10.9978ZM44.8843 12.7093L44.9599 12.6128L44.2769 12.0745L44.2012 12.1709L44.8843 12.7093Z"/>
<path d="M18.9805 9.2757L21.3701 8.3999C20.7428 8.92618 19.3648 9.44242 18.9805 9.2757Z" />
<path d="M7.86511 15.3785L7.2677 16.0494L7.04069 16.2081L7.00684 16.172L7.97862 15.0571L8.01247 15.0772C7.96667 15.1797 7.9149 15.2781 7.86511 15.3785Z" />
<path d="M43.7173 58.7584L45.4438 57.5732L45.4856 57.6355L43.7571 58.8186L43.7173 58.7584Z"/>
<path d="M14.7527 35.5019V29.986C14.7527 29.062 14.1931 28.592 13.2313 28.592C12.8079 28.5942 12.3915 28.7011 12.0186 28.9033V37.0044H9.90771V23.2026H12.0186V27.3064C12.5692 27.0486 13.1679 26.9116 13.7749 26.9047C15.7484 26.9047 16.8815 27.909 16.8815 29.757V35.4919L14.7527 35.5019Z"/>
<path d="M22.5512 35.6586C20.0341 35.6586 18.7676 34.6543 18.7676 32.9328C18.7676 30.6289 21.1453 30.1749 23.6763 30.0343V29.5944C23.6763 28.7166 23.0789 28.3892 22.1071 28.3892C21.3019 28.4138 20.5075 28.5832 19.7613 28.8893L19.2336 27.4491C20.2223 27.0519 21.2758 26.8441 22.3401 26.8364C24.4848 26.8364 25.6796 27.6841 25.6796 29.8495V35.052C25.0663 35.3754 23.8097 35.6586 22.5512 35.6586ZM23.6843 31.3962C22.131 31.4745 20.7649 31.6151 20.7649 32.8846C20.7649 33.6881 21.3862 34.1381 22.4894 34.1381C22.9596 34.1422 23.4282 34.0841 23.8834 33.9653L23.6843 31.3962Z" />
<path d="M32.1156 35.5962C31.7043 35.5945 31.2955 35.5308 30.9028 35.4074V38.8704H28.792V27.4791C29.4133 27.1496 30.5842 26.8765 31.8507 26.8765C34.553 26.8765 36.0326 28.5055 36.0326 31.2474C36.0286 33.8406 34.6785 35.5962 32.1156 35.5962ZM31.8826 28.5296C31.548 28.5224 31.2152 28.5811 30.9028 28.7024V33.8085C31.224 33.9153 31.5604 33.9682 31.8985 33.9652C33.2188 33.9652 33.9018 32.8383 33.9018 31.2394C33.9018 29.532 33.1869 28.5296 31.8826 28.5296Z" />
<path d="M41.7477 35.5962C41.3364 35.5945 40.9277 35.5308 40.535 35.4074V38.8704H38.4341V27.4791C39.0554 27.1496 40.2263 26.8765 41.4928 26.8765C44.1971 26.8765 45.6747 28.5055 45.6747 31.2474C45.6627 33.8406 44.3106 35.5962 41.7477 35.5962ZM41.5147 28.5296C41.1801 28.5224 40.8473 28.5811 40.535 28.7024V33.8085C40.8561 33.9153 41.1925 33.9682 41.5307 33.9652C42.8509 33.9652 43.534 32.8383 43.534 31.2394C43.534 29.532 42.8151 28.5296 41.5147 28.5296Z"/>
<path d="M51.5175 38.8701L49.4047 38.5286L50.48 35.5015L47.3257 27.0649H49.7153L51.2825 32.3759C51.4062 32.8129 51.5001 33.2578 51.5633 33.7077H51.5932C51.6564 33.2578 51.7502 32.8129 51.874 32.3759L53.4432 27.0649H55.8188L51.5175 38.8701Z" />
<path d="M12.8729 48.1404C11.853 48.1464 10.8431 47.9377 9.90771 47.5278V35.6523H12.0186V39.6697C12.4885 39.4831 12.9891 39.3877 13.4942 39.3885C15.6707 39.3885 17.1463 40.9091 17.1463 43.4943C17.1463 46.666 15.5453 48.1404 12.8729 48.1404ZM13.0919 41.0256C12.7232 41.0256 12.3583 41.1001 12.0186 41.2446V46.2904C12.3313 46.4101 12.6638 46.4687 12.9983 46.4632C14.2091 46.4632 15.0176 45.5392 15.0176 43.6731C15.0176 42.0139 14.2867 41.0256 13.0919 41.0256Z" />
<path d="M18.7754 47.9512V32.9321L20.8882 34.9127V47.9512H18.7754Z" />
<path d="M26.309 48.1406C23.8716 48.1406 22.5254 46.2444 22.5254 43.7214C22.5254 41.1985 23.8775 39.3184 26.309 39.3184C28.7404 39.3184 30.0926 41.1985 30.0926 43.7214C30.0926 46.2444 28.7484 48.1406 26.309 48.1406ZM26.309 40.9956C25.1918 40.9956 24.6323 42.014 24.6323 43.7054C24.6323 45.3967 25.1918 46.401 26.309 46.401C27.4261 46.401 27.9877 45.3967 27.9877 43.7054C27.9877 42.014 27.4281 40.9956 26.309 40.9956Z" />
<path d="M34.9451 51.4766C33.8474 51.5015 32.7583 51.2763 31.7589 50.8178L32.3563 49.1425C33.094 49.4948 33.902 49.6714 34.7181 49.6588C35.9607 49.6588 36.5342 49.016 36.5342 47.8409V47.3247C36.0413 47.5275 35.5132 47.6285 34.9809 47.6219C32.8542 47.6219 31.3965 46.1335 31.3965 43.5945C31.3965 40.7442 33.0573 39.318 35.6819 39.318C36.6974 39.3 37.7045 39.5056 38.6331 39.9206V47.8329C38.6331 50.2232 37.1973 51.4766 34.9451 51.4766ZM36.5382 41.1359C36.2052 41.014 35.8528 40.9554 35.4987 40.9631C34.3337 40.9631 33.5073 41.7465 33.5073 43.5162C33.5073 45.1774 34.27 46.009 35.435 46.009C35.8139 46.0059 36.1884 45.9259 36.5362 45.7739L36.5382 41.1359Z" />
<path d="M43.7829 51.4766C42.6853 51.5014 41.5962 51.2762 40.5968 50.8177L41.1942 49.1425C41.9318 49.4947 42.7399 49.6713 43.5559 49.6587C44.7985 49.6587 45.374 49.0159 45.374 47.8408V47.3246C44.881 47.5269 44.353 47.628 43.8208 47.6219C41.692 47.6219 40.2363 46.1334 40.2363 43.5944C40.2363 40.7441 41.8971 39.3179 44.5237 39.3179C45.5392 39.3004 46.5462 39.506 47.4749 39.9205V47.8328C47.4809 50.2232 46.0352 51.4766 43.7829 51.4766ZM45.376 41.1358C45.0424 41.0141 44.6893 40.9556 44.3346 40.9631C43.1696 40.9631 42.3432 41.7464 42.3432 43.5161C42.3432 45.1773 43.1039 46.0089 44.2688 46.0089C44.6523 46.0078 45.0316 45.9286 45.384 45.7759L45.376 41.1358Z" />
<path d="M51.2247 25.8499C51.0025 25.8365 50.789 25.7581 50.6103 25.6241C50.4317 25.4901 50.2958 25.3064 50.2192 25.0956C50.1426 24.8848 50.1287 24.656 50.1792 24.4373C50.2297 24.2186 50.3424 24.0196 50.5035 23.8646C50.6645 23.7096 50.8669 23.6055 51.0859 23.5649C51.3048 23.5243 51.5307 23.5491 51.7359 23.6362C51.941 23.7233 52.1165 23.8689 52.2408 24.0552C52.3651 24.2415 52.4327 24.4603 52.4354 24.6848C52.4321 24.8416 52.398 24.9962 52.3353 25.1397C52.2726 25.2831 52.1824 25.4127 52.0699 25.521C51.9574 25.6292 51.8248 25.714 51.6798 25.7704C51.5347 25.8269 51.3801 25.8539 51.2247 25.8499Z" />
<path d="M49.4048 47.9512V38.5284L51.5176 38.0664V47.9512H49.4048Z" />
<path d="M58.2898 47.9515V42.3894C58.2898 41.5437 57.7781 41.0255 56.8142 41.0255C56.3865 41.02 55.9609 41.0879 55.5557 41.2264V47.9475H53.4429V39.9288C54.5071 39.5101 55.6422 39.3054 56.7844 39.3261C59.2696 39.3261 60.4186 40.3606 60.4186 42.1785V47.9595L58.2898 47.9515Z" />
<path d="M65.5584 51.4766C64.4607 51.501 63.3718 51.2758 62.3722 50.8178L62.9696 49.1425C63.7066 49.4948 64.5139 49.6714 65.3294 49.6588C66.572 49.6588 67.1475 49.016 67.1475 47.8409V47.3247C66.6545 47.527 66.1264 47.6281 65.5942 47.6219C63.4655 47.6219 62.0098 46.1335 62.0098 43.5945C62.0098 40.7442 63.6726 39.318 66.2972 39.318C67.3126 39.3 68.3198 39.5056 69.2484 39.9206V47.8329C69.2563 50.2232 67.8126 51.4766 65.5584 51.4766ZM67.1515 41.1359C66.8196 41.0116 66.4679 40.9503 66.114 40.9551C64.949 40.9551 64.1226 41.7385 64.1226 43.5081C64.1226 45.1693 64.8833 46.0009 66.0482 46.0009C66.4278 45.9976 66.8029 45.9177 67.1515 45.7659V41.1359Z" />
</svg>
