<?xml version="1.0" standalone="no"?>
<!DOCTYPE svg PUBLIC "-//W3C//DTD SVG 20010904//EN"
 "http://www.w3.org/TR/2001/REC-SVG-20010904/DTD/svg10.dtd">
<svg version="1.0" xmlns="http://www.w3.org/2000/svg"
 width="70.000000pt" height="70.000000pt" viewBox="0 0 70.000000 70.000000"
 preserveAspectRatio="xMidYMid meet">
<metadata>
Created by potrace 1.14, written by Peter Selinger 2001-2017
</metadata>
<g transform="translate(0.000000,70.000000) scale(0.100000,-0.100000)"
fill="#000000" stroke="none">
<path d="M222 633 c-13 -2 -19 -9 -16 -15 4 -7 2 -8 -4 -4 -15 9 -80 -25 -119
-64 -51 -50 -77 -114 -80 -197 -2 -62 2 -79 28 -132 79 -157 255 -216 400
-134 29 16 55 36 57 44 2 10 1 11 -5 2 -10 -14 -63 -37 -80 -34 -7 1 -13 -3
-13 -8 0 -10 -8 -11 -80 -11 -68 0 -101 9 -151 41 -143 90 -164 291 -45 414
41 42 85 64 143 72 27 3 54 11 62 17 11 8 13 8 7 -1 -5 -9 -1 -13 11 -13 44
-1 114 -35 161 -79 12 -12 22 -17 22 -10 0 28 -110 106 -132 93 -6 -4 -8 -3
-5 3 4 6 -1 13 -11 15 -24 6 -122 7 -150 1z"/>
<path d="M100 345 l0 -125 30 0 c24 0 31 5 36 27 8 31 -7 59 -30 57 -13 -2
-16 9 -16 52 0 42 3 54 16 54 10 0 15 -8 14 -22 -4 -42 -1 -53 11 -41 6 6 9
26 7 44 -2 26 -8 35 -25 37 -15 2 -23 10 -23 23 0 10 -4 19 -10 19 -6 0 -10
-48 -10 -125z m45 -65 c9 -14 -4 -52 -16 -45 -12 8 -12 55 0 55 6 0 13 -5 16
-10z"/>
<path d="M505 450 c3 -5 8 -10 11 -10 2 0 4 5 4 10 0 6 -5 10 -11 10 -5 0 -7
-4 -4 -10z"/>
<path d="M200 419 c0 -5 4 -8 8 -5 4 2 14 1 22 -5 12 -7 10 -9 -7 -9 -12 0
-26 -8 -30 -17 -13 -30 -10 -156 5 -160 9 -4 12 12 12 55 0 55 2 60 25 66 25
6 33 34 19 70 -7 18 -54 22 -54 5z m40 -50 c0 -5 -7 -9 -15 -9 -15 0 -20 12
-9 23 8 8 24 -1 24 -14z"/>
<path d="M289 415 c-1 -8 -1 -31 -1 -50 0 -19 0 -39 1 -45 1 -15 21 -12 21 3
0 7 10 17 23 22 25 11 34 49 17 71 -16 19 -60 18 -61 -1z m46 -30 c0 -10 -6
-20 -12 -22 -8 -3 -13 5 -13 22 0 17 5 25 13 23 6 -3 12 -13 12 -23z"/>
<path d="M384 416 c-10 -26 1 -99 15 -104 8 -3 11 0 7 7 -4 6 3 16 18 22 31
14 41 41 26 69 -12 23 -58 27 -66 6z m49 -42 c-7 -20 -28 -12 -27 9 3 40 5 42
19 24 7 -11 11 -25 8 -33z"/>
<path d="M485 403 c4 -16 7 -63 7 -106 -1 -58 2 -77 11 -74 7 2 13 23 13 48 1
24 11 70 22 102 16 44 18 57 8 57 -8 0 -17 -12 -21 -27 l-7 -28 -10 28 c-5 15
-14 27 -20 27 -6 0 -8 -10 -3 -27z"/>
<path d="M240 300 c-15 -9 -17 -57 -2 -72 6 -6 22 -8 36 -4 21 5 26 13 26 36
0 37 -31 58 -60 40z m38 -38 c2 -15 -2 -22 -12 -22 -11 0 -16 9 -16 26 0 31
23 28 28 -4z"/>
<path d="M324 293 c-8 -8 -14 -21 -14 -28 0 -16 27 -45 41 -45 6 0 8 -4 4 -10
-3 -5 -12 -7 -20 -3 -8 3 -15 1 -15 -5 0 -16 39 -21 54 -7 7 8 12 34 12 62 -1
43 -3 48 -24 49 -13 1 -30 -5 -38 -13z m37 -16 c-1 -4 -1 -14 -1 -22 0 -8 -4
-15 -10 -15 -5 0 -10 12 -10 26 0 14 5 24 11 22 6 -2 10 -7 10 -11z"/>
<path d="M428 303 c-37 -10 -28 -83 10 -83 14 0 15 -2 2 -9 -8 -6 -18 -7 -22
-5 -4 3 -8 1 -8 -4 0 -13 35 -21 49 -12 13 7 23 76 15 103 -5 17 -13 19 -46
10z m22 -38 c0 -25 -14 -34 -24 -16 -8 12 3 41 15 41 5 0 9 -11 9 -25z"/>
<path d="M543 298 c-12 -20 -11 -78 2 -78 6 0 11 14 10 32 0 17 6 33 13 35 8
3 12 -7 12 -31 0 -23 5 -36 13 -36 19 0 16 68 -3 80 -21 13 -37 12 -47 -2z"/>
<path d="M630 296 c-19 -19 -11 -56 15 -68 25 -11 26 -31 1 -22 -8 3 -17 1
-20 -4 -9 -15 23 -23 45 -12 21 12 21 13 21 65 0 19 0 39 -1 45 -1 12 -48 9
-61 -4z m40 -31 c0 -26 -14 -33 -25 -15 -9 14 1 40 15 40 5 0 10 -11 10 -25z"/>
</g>
</svg>
